<?xml version="1.0" standalone="no"?><!-- Generator: Gravit.io --><svg xmlns="http://www.w3.org/2000/svg" xmlns:xlink="http://www.w3.org/1999/xlink" style="isolation:isolate" viewBox="0 0 184 42" width="184" height="42"><defs><clipPath id="_clipPath_0mT2N1vJeZVJj4DQcuGHCviwlqREl5it"><rect width="184" height="42"/></clipPath></defs><g clip-path="url(#_clipPath_0mT2N1vJeZVJj4DQcuGHCviwlqREl5it)"><path d=" M 28.66 7.466 L 28.66 0.102 L 36.024 0.102 L 36.024 7.466 L 28.66 7.466 Z  M 28.66 41.4 L 28.66 10.352 L 36.024 10.352 L 36.024 41.4 L 28.66 41.4 Z " fill="rgb(21,38,73)"/><path d=" M 46.473 41.4 L 39.109 41.4 L 39.109 10.352 L 46.274 10.352 L 46.274 16.124 C 48.562 12.74 51.846 9.755 56.324 9.755 C 57.121 9.755 57.618 9.855 58.016 9.954 L 58.016 16.92 C 57.419 16.82 56.324 16.82 55.827 16.82 C 52.443 16.82 46.373 20.005 46.373 26.175 L 46.373 41.4 L 46.473 41.4 Z " fill="rgb(21,38,73)"/><path d=" M 60.106 41.4 L 60.106 0.102 L 73.341 0.102 C 76.824 0.102 88.666 0.102 88.666 10.153 C 88.666 17.119 83.293 18.91 80.506 19.905 C 83.691 20.701 89.661 22.393 89.661 30.056 C 89.661 36.325 84.984 41.4 74.336 41.4 L 60.106 41.4 Z  M 67.868 16.92 L 73.341 16.92 C 80.407 16.92 81.004 12.74 81.004 11.347 C 81.004 6.173 75.63 6.173 74.038 6.173 L 67.868 6.173 L 67.868 16.92 Z  M 67.868 35.33 L 72.744 35.33 C 77.919 35.33 81.601 33.638 81.601 29.16 C 81.601 26.274 80.009 22.891 73.242 22.891 L 67.868 22.891 L 67.868 35.33 Z " fill="rgb(21,38,73)"/><path d=" M 110.559 41.4 L 109.763 38.116 C 107.972 39.708 104.986 42.097 100.409 42.097 C 94.836 42.097 90.856 38.514 90.856 33.539 C 90.856 30.354 92.05 26.573 98.817 24.184 L 107.673 21.199 C 108.967 20.801 109.067 20.701 109.067 19.806 L 109.067 18.512 C 109.067 15.925 106.678 15.129 103.792 15.129 C 98.916 15.129 94.438 18.114 92.647 19.308 L 92.647 12.84 C 94.637 11.745 98.419 9.556 104.887 9.556 C 114.54 9.556 116.431 14.432 116.431 20.303 L 116.431 41.301 L 110.559 41.4 L 110.559 41.4 Z  M 102.499 28.065 C 99.414 29.16 98.319 30.653 98.319 32.842 C 98.319 35.927 101.006 36.624 102.3 36.624 C 103.494 36.624 106.081 36.226 109.067 33.141 L 109.067 25.478 C 108.668 25.777 108.469 25.876 107.176 26.374 L 102.499 28.065 Z " fill="rgb(21,38,73)"/><path d=" M 19.604 41.4 L 18.808 38.116 C 17.017 39.708 14.131 42.097 9.454 42.097 C 3.881 42.097 0 38.514 0 33.539 C 0 30.354 1.095 26.573 7.961 24.184 L 16.917 21.199 C 18.211 20.801 18.31 20.701 18.31 19.806 L 18.31 18.512 C 18.31 15.925 15.922 15.129 13.036 15.129 C 8.16 15.129 3.682 18.114 1.891 19.308 L 1.891 12.84 C 3.881 11.745 7.663 9.556 14.131 9.556 C 23.784 9.556 25.674 14.432 25.674 20.303 L 25.674 41.301 L 19.604 41.4 L 19.604 41.4 Z  M 11.643 28.065 C 8.558 29.16 7.463 30.653 7.463 32.842 C 7.463 35.927 10.15 36.624 11.444 36.624 C 12.638 36.624 15.226 36.226 18.211 33.141 L 18.211 25.478 C 17.813 25.777 17.614 25.876 16.32 26.374 L 11.643 28.065 Z " fill="rgb(21,38,73)"/><path d=" M 119.515 41.4 L 119.515 0.102 L 126.879 0.102 L 126.879 41.4 L 119.515 41.4 Z " fill="rgb(21,38,73)"/><path d=" M 133.149 15.925 L 128.671 15.925 L 128.671 10.253 L 133.149 10.253 L 133.149 0.003 L 140.513 0.003 L 140.513 10.253 L 146.085 10.253 L 146.085 15.925 L 140.513 15.925 L 140.513 31.648 C 140.513 33.937 140.811 36.026 144.195 36.026 C 145.09 36.026 145.787 35.927 146.384 35.827 L 146.384 41.4 C 145.389 41.5 144.394 41.599 142.901 41.599 C 134.641 41.599 133.149 37.519 133.149 32.046 L 133.149 15.925 L 133.149 15.925 Z " fill="rgb(21,38,73)"/><path d=" M 148.971 7.466 L 148.971 0.003 L 156.335 0.003 L 156.335 7.466 L 148.971 7.466 Z  M 148.971 41.4 L 148.971 10.352 L 156.335 10.352 L 156.335 41.4 L 148.971 41.4 Z " fill="rgb(21,38,73)"/><path d=" M 183.303 18.711 C 181.811 17.418 179.422 15.527 175.243 15.527 C 168.874 15.527 166.287 20.801 166.287 25.876 C 166.287 28.065 166.884 36.226 175.044 36.226 C 179.323 36.226 182.01 34.335 184 32.942 L 184 39.509 C 182.507 40.306 179.124 41.997 173.85 41.997 C 163.301 41.997 158.823 34.036 158.823 25.777 C 158.823 17.218 163.699 9.556 174.148 9.556 C 179.223 9.556 182.01 11.148 183.303 11.845 L 183.303 18.711 L 183.303 18.711 Z " fill="rgb(21,38,73)"/></g></svg>