<svg clip-rule="evenodd" fill-rule="evenodd" stroke-linejoin="round" stroke-miterlimit="2" viewBox="0 0 560 400" xmlns="http://www.w3.org/2000/svg"><g transform="matrix(.593863 0 0 .593863 100 144.082)"><path d="m102.57 0h-41.13l-61.44 149.96h41.13z" fill="#ffb71b" fill-rule="nonzero"/><path d="m111.98 4.73 61.8 145.23h-43.6l-38.85-94.83zm136.13 38.48c12.46 0 21.74 3.65 27.84 10.93 6.09 7.3 9.14 18.31 9.14 33.04v62.89h-32.08v-61.4c0-7.08-1.31-12.25-3.93-15.51-2.63-3.26-6.69-4.89-12.22-4.89-6.66 0-12.01 2.13-16.04 6.38-4.04 4.25-6.06 9.92-6.06 17v58.43h-32.08v-104.32h31.23v14.87c3.68-5.67 8.46-9.99 14.34-12.96 5.87-2.97 12.49-4.46 19.86-4.46zm113.79 45.47c10.63 2.41 18.38 6.05 23.29 10.95 4.89 4.88 7.33 11.51 7.33 19.86 0 10.06-4 17.95-12 23.69-8.01 5.74-19.02 8.61-33.04 8.61-9.63 0-18.45-1.1-26.45-3.29-8-2.2-14.91-5.35-20.71-9.46l8.49-22.09c5.67 3.82 11.91 6.79 18.7 8.92 6.8 2.12 13.67 3.18 20.61 3.18 4.95 0 8.82-.81 11.58-2.44 2.76-1.62 4.14-3.85 4.14-6.69 0-2.55-.96-4.53-2.87-5.95-1.92-1.41-5.49-2.69-10.73-3.82l-17-3.83c-10.06-2.27-17.47-5.77-22.21-10.52-4.74-4.74-7.12-11.22-7.12-19.44 0-6.51 1.87-12.25 5.63-17.21 3.75-4.95 9.06-8.85 15.93-11.68s14.69-4.25 23.48-4.25c7.5 0 14.8 1.14 21.88 3.4 7.08 2.27 13.45 5.45 19.12 9.56l-8.5 21.24c-11.05-7.65-21.96-11.47-32.72-11.47-4.96 0-8.86.85-11.69 2.55s-4.24 4.11-4.24 7.22c0 2.26.85 4.03 2.54 5.31 1.7 1.28 4.68 2.48 8.93 3.61zm236.96 10.94c4.88 4.89 7.32 11.51 7.34 19.87 0 10.06-4 17.95-12 23.69-8.01 5.74-19.02 8.61-33.04 8.61-9.64 0-18.45-1.1-26.45-3.29-8.01-2.2-14.91-5.35-20.72-9.46l8.5-22.09c5.66 3.82 11.9 6.79 18.7 8.92 6.8 2.12 13.67 3.18 20.61 3.18 4.96 0 8.82-.81 11.58-2.44 2.76-1.62 4.14-3.85 4.14-6.69 0-2.55-.95-4.53-2.87-5.95-1.91-1.41-5.49-2.69-10.73-3.82l-17-3.83c-10.06-2.27-17.46-5.77-22.2-10.52-4.75-4.74-7.12-11.22-7.12-19.44 0-6.51 1.88-12.25 5.63-17.21 3.75-4.95 9.06-8.85 15.94-11.68 6.86-2.83 14.69-4.25 23.47-4.25 7.51 0 14.8 1.14 21.88 3.4 7.08 2.27 13.46 5.45 19.12 9.56l-8.49 21.24c-11.05-7.65-21.96-11.47-32.72-11.47-4.96 0-8.86.85-11.69 2.55s-4.25 4.11-4.25 7.22c0 2.26.85 4.03 2.55 5.31s4.68 2.48 8.92 3.61l17.64 4.04c10.62 2.41 18.37 6.05 23.26 10.94zm-117.88-53.73h30.99l-58.36 142.43h-30.99l17.78-43.39-40.58-99.04h30.99l25.09 61.21z" fill="#151617"/></g></svg>