<?xml version="1.0" encoding="utf-8"?>
<!-- Generator: Adobe Illustrator 27.9.0, SVG Export Plug-In . SVG Version: 6.00 Build 0)  -->
<svg version="1.0" id="Layer_2" xmlns="http://www.w3.org/2000/svg" xmlns:xlink="http://www.w3.org/1999/xlink" x="0px" y="0px"
	 viewBox="0 0 800 240" style="enable-background:new 0 0 800 240;" xml:space="preserve">
<style type="text/css">
	.st0{fill:#808285;}
	.st1{fill:#0378CD;}
	.st2{fill:#127EC0;}
	.st3{fill:#010101;}
</style>
<g>
	<g>
		<path class="st0" d="M441.3,151.3h-11.8l-0.2,0.2l-8,40.4l0.2,0.2H434c7.8,0,13.7-2.4,18.4-7c4.4-4.4,7.3-11.4,7.3-18.2
			C459.6,156.7,452.5,151.3,441.3,151.3z M446.1,181c-2.8,2.8-6.4,4.2-11,4.2h-4.6l5.4-27h5.1c6.7,0,10.6,3,10.6,9.3
			C451.6,172.1,449.5,177.8,446.1,181z"/>
		<polygon class="st0" points="470.4,151.3 470.1,151.5 462.2,191.9 462.4,192.2 469.7,192.2 470,191.9 477.9,151.5 477.7,151.3 		
			"/>
		<path class="st0" d="M498.5,150.4c-8.5,0-15,5.5-15,12.9c0,4.9,2.4,8,8.3,10.6l4.2,1.8c3.7,1.6,5,2.6,5,4.9c0,2.9-2.6,5.8-7.4,5.8
			c-3.9,0-7.8-1.9-10.5-5.9h-0.3l-4.6,5.4l-0.1,0.3c3.6,4.6,8.4,6.9,14.9,6.9c9.2,0,15.7-5.5,15.7-13.7c0-5-2.8-7.8-8.4-10.3
			l-4.2-1.8c-3.9-1.7-4.9-2.7-4.9-4.7c0-2.8,2.7-5.4,6.9-5.4c3.8,0,7.3,2.1,9.1,5.3h0.3l4.6-5.1l0.1-0.3
			C510.3,153.7,505.2,150.4,498.5,150.4z"/>
		<path class="st0" d="M537.6,150.4c-6,0-11.3,2.7-14.9,6.2c-5.5,5.4-8,12.4-8,19.2c0,12.3,9,17.3,16.4,17.3c5.6,0,9.1-1.6,12.9-4.2
			l0.1-0.4l-2.3-5.4h-0.4c-2.6,1.8-5.5,3.2-8.8,3.2c-5.9,0-9.9-4.4-9.9-11.4c0-4.8,2-10,5.9-13.8c2.3-2.3,5.4-3.9,8.8-3.9
			c3.1,0,6.7,1.7,8.8,4.4h0.3l4-5.6v-0.3C547.9,152.6,543.3,150.4,537.6,150.4z"/>
		<path class="st0" d="M573.5,150.4c-5.3,0-10.5,2-14.6,6.1c-4,3.9-7.7,10.8-7.7,19c0,11.5,7.4,17.7,16.9,17.7
			c5.3,0,10.5-2,14.6-6.1c4-3.9,7.7-10.8,7.7-19C590.4,156.6,583,150.4,573.5,150.4z M576.6,182.8c-2.1,2.1-4.7,3.5-7.8,3.5
			c-5.5,0-9.4-3.8-9.4-10.7c0-5.1,2.1-11.3,5.7-14.9c2-2.1,4.6-3.5,7.8-3.5c5.5,0,9.4,3.7,9.4,10.7
			C582.3,172.9,580.3,179.2,576.6,182.8z"/>
		<polygon class="st0" points="634,151.3 625.7,151.3 608.9,183.7 608.3,183.7 603.9,151.3 595.9,151.3 595.7,151.6 602.1,192.2 
			611.8,192.2 634.1,151.6 		"/>
		<polygon class="st0" points="666.3,151.3 640.2,151.3 639.9,151.5 632,191.9 632.1,192.2 658.4,192.2 658.6,191.9 659.9,185.5 
			659.7,185.2 641,185.2 643.1,174.9 658.5,174.9 658.8,174.7 660,168.2 659.8,168 644.5,168 646.4,158.2 665,158.2 665.2,158 
			666.5,151.5 		"/>
		<path class="st0" d="M689.5,151.3h-14.9l-0.2,0.2l-8,40.4l0.2,0.2h7.2l0.2-0.2l3-15.7h5.4c4,0,5.8,1,6,5.9l0.4,10.1h7.6l0.2-0.2
			l-0.6-11.3c-0.2-4.4-1.2-6.3-3.9-7.2l0.1-0.3c6.9-1.7,9.5-7.6,9.5-12.1C701.8,155.1,697.6,151.3,689.5,151.3z M684.9,169.5h-6.5
			l2.2-11.4h6.7c4.2,0,6.3,1.3,6.3,4.4C693.6,166,690.9,169.5,684.9,169.5z"/>
		<polygon class="st0" points="734.6,151.3 721.4,168.7 720.7,168.7 714.4,151.3 706.2,151.3 706,151.6 715.7,176.1 712.6,191.9 
			712.7,192.2 720.1,192.2 720.4,191.9 723.4,176.3 742.9,151.6 742.9,151.3 		"/>
		<path class="st0" d="M447.1,132c9.2,0,15.7-5.5,15.7-13.7c0-5-2.8-7.8-8.4-10.3l-4.2-1.8c-3.9-1.7-4.9-2.7-4.9-4.7
			c0-2.8,2.7-5.4,6.9-5.4c3.8,0,7.3,2.1,9.1,5.3h0.3l4.6-5.1l0.1-0.3c-1.9-3.3-7-6.6-13.7-6.6c-8.5,0-15,5.5-15,12.9
			c0,4.9,2.4,8,8.3,10.6l4.2,1.8c3.7,1.6,5,2.6,5,4.9c0,2.9-2.6,5.8-7.4,5.8c-3.9,0-7.8-1.9-10.5-5.9h-0.3l-4.6,5.4l-0.1,0.3
			C435.7,129.7,440.5,132,447.1,132z"/>
		<polygon class="st0" points="482.8,97.2 476.2,130.9 476.3,131.1 483.7,131.1 483.9,130.9 490.6,97.2 502.7,97.2 503,96.9 
			504.2,90.5 504,90.2 472,90.2 471.8,90.5 470.5,96.9 470.7,97.2 		"/>
		<path class="st0" d="M495.9,131.1h8.1l5.3-10h15.9l1.3,10h7.8l0.2-0.3l-6.3-40.6h-9.8l-22.5,40.6L495.9,131.1z M521.4,98h0.7
			l2.2,16.6h-11.7L521.4,98z"/>
		<polygon class="st0" points="552.2,97.2 545.6,130.9 545.8,131.1 553.2,131.1 553.4,130.9 560.1,97.2 572.2,97.2 572.4,96.9 
			573.7,90.5 573.5,90.2 541.5,90.2 541.2,90.5 539.9,96.9 540.1,97.2 		"/>
		<polygon class="st0" points="572.7,131.1 580.1,131.1 580.3,130.9 588.3,90.5 588.1,90.2 580.7,90.2 580.5,90.5 572.5,130.9 		"/>
		<path class="st0" d="M603.4,132c9.2,0,15.7-5.5,15.7-13.7c0-5-2.8-7.8-8.4-10.3l-4.2-1.8c-3.9-1.7-4.9-2.7-4.9-4.7
			c0-2.8,2.7-5.4,6.9-5.4c3.8,0,7.3,2.1,9.1,5.3h0.3l4.6-5.1l0.1-0.3c-1.9-3.3-7-6.6-13.7-6.6c-8.5,0-15,5.5-15,12.9
			c0,4.9,2.4,8,8.3,10.6l4.2,1.8c3.7,1.6,5,2.6,5,4.9c0,2.9-2.6,5.8-7.4,5.8c-3.9,0-7.8-1.9-10.5-5.9h-0.3l-4.6,5.4l-0.1,0.3
			C592.1,129.7,596.9,132,603.4,132z"/>
		<polygon class="st0" points="639.1,97.2 632.5,130.9 632.7,131.1 640.1,131.1 640.3,130.9 647,97.2 659.1,97.2 659.3,96.9 
			660.6,90.5 660.4,90.2 628.4,90.2 628.1,90.5 626.9,96.9 627,97.2 		"/>
		<polygon class="st0" points="659.6,131.1 667,131.1 667.2,130.9 675.2,90.5 675,90.2 667.6,90.2 667.4,90.5 659.5,130.9 		"/>
		<path class="st0" d="M694.4,132c5.6,0,9.1-1.6,12.9-4.2l0.1-0.4l-2.3-5.4h-0.4c-2.6,1.8-5.5,3.2-8.8,3.2c-5.9,0-9.9-4.4-9.9-11.4
			c0-4.8,2-10,5.9-13.8c2.3-2.3,5.4-3.9,8.8-3.9c3.1,0,6.7,1.7,8.8,4.4h0.3l4-5.6v-0.3c-2.5-3.1-7.1-5.3-12.9-5.3
			c-6,0-11.3,2.7-14.9,6.2c-5.5,5.4-8,12.4-8,19.2C678,127.1,687,132,694.4,132z"/>
		<path class="st0" d="M732.5,90.2L710,130.8l0.1,0.3h8.1l5.3-10h15.9l1.3,10h7.8l0.2-0.3l-6.3-40.6H732.5z M726.8,114.6l8.8-16.6
			h0.7l2.2,16.6H726.8z"/>
		<polygon class="st0" points="781.3,124.2 763.6,124.2 770.2,90.5 770.1,90.2 762.7,90.2 762.5,90.5 754.5,130.9 754.7,131.1 
			780,131.1 780.2,130.9 781.5,124.4 		"/>
	</g>
	<g>
		<path class="st1" d="M161.3,51l-0.2-0.2l-0.2-0.1c-9.6-6.7-27.5-8.2-36.8-6.4c-1.3,0.3-2.5,0.5-3.5,0.7c3.4-7,5.8-21,2.2-29.8
			l-0.1-0.2l-0.1-0.2c-0.3-0.4-1-0.6-1.5-0.3c-0.1,0.1-0.2,0.2-0.3,0.3c0,0.1-0.1,0.1-0.1,0.2l0,0.1c-0.8,5.4-2.2,10.5-4.6,15
			c-3.3,6.3-8.4,11.6-16.4,15.8c-14.1,7.2-26.2,6.5-41.3,3.1l-0.1,0c-0.3,0-0.5,0-0.7,0.1c-0.1,0.1-0.3,0.2-0.3,0.3
			c-0.1,0.3-0.1,0.6,0.1,0.9l0.2,0.2l0.2,0.1c13.4,9.6,30.7,12.2,43.4,9.4c-7.8,13.3-10.6,33.7-3.3,51.8l0.1,0.2l0.1,0.3
			c0.3,0.4,0.7,0.5,1.1,0.4c0.2,0,0.3-0.1,0.5-0.3c0.2-0.2,0.3-0.5,0.3-0.8l0-0.1c0.7-17.7,3.8-31.3,16.9-44.7
			c7.5-7.7,15.5-11.7,24-13.4c6.2-1.2,12.6-1.2,19.3-0.5l0.1,0c0.1,0,0.2,0,0.3,0c0.2,0,0.3-0.1,0.5-0.2
			C161.7,52.3,161.7,51.5,161.3,51z"/>
		<g>
			<path d="M345.3,79.7c-16.7,0-30.9,5.6-39.8,15.4c0.9-4.5,2.5-12.7,2.5-12.7l-22.3,0l-28.1,143h22.2c2.1-11.3,6.4-34,7.3-38.5
				c6.9,11.5,21.8,15.9,34,15.9c33.6,0,60.2-24,67.6-61.2C396.3,104,379.2,79.7,345.3,79.7z M365.6,140.2
				c-2.6,13-11.9,43.1-42.6,43.1c-33.2,0-29.4-32.3-27.4-42.2c4.1-20.3,17.5-42,43.1-41.9C363,99.1,369.7,119.7,365.6,140.2z"/>
			<path d="M44,192.3c-2.4,12.3-5.7,14.4-12.3,14.4c-2.8,0-5.1,0-7.7-0.4l-1.6-0.3l-3.7,19l1.1,0.2c3.1,0.6,6.4,0.9,10.2,0.9
				c19.2,0,31.9-10.9,35.7-30.7L87.5,81.9H65.2L44,192.3z"/>
			<path d="M225.3,80h-3.7c-12.1,0-24,5.1-33.4,13.1c-6.1-8.1-15.9-13.1-28-13.1h-3.7c-23.3,0-46,18.7-50.7,41.6l-16.1,78.9h23
				l16.1-78.9c2.1-10.4,12.5-18.9,23.1-18.9h3.7c10.5,0,17.3,8.3,15.4,18.6c0,0.1-0.1,0.2-0.1,0.3l-16.1,78.9h0h23h0l16.1-78.9
				c0-0.1,0-0.2,0-0.3c2.3-10.3,12.5-18.6,23-18.6h3.7c10.6,0,17.5,8.5,15.3,18.9l-16.1,78.9h23l16.1-78.9
				C263.7,98.7,248.6,80,225.3,80z"/>
		</g>
		<path class="st2" d="M101.8,24.2c1.4,6.7-3,13.2-9.8,14.6c-6.8,1.4-13.4-3-14.8-9.7c-1.4-6.7,3-13.2,9.8-14.6
			C93.8,13.1,100.4,17.5,101.8,24.2z"/>
		<g id="XMLID_00000031178060237144588300000000737918485304637370_">
			<path id="XMLID_00000111906811574161804420000011855169206996131227_" class="st3" d="M366.2,197.4c0-3.4,2.6-6,6-6
				c3.3,0,6,2.6,6,6c0,3.5-2.6,6.1-6,6.1C368.8,203.4,366.2,200.9,366.2,197.4z M372.2,204.6c4,0,7.5-3.1,7.5-7.3
				c0-4.2-3.4-7.3-7.5-7.3c-4.1,0-7.5,3.1-7.5,7.3C364.7,201.6,368.1,204.6,372.2,204.6z M370.6,197.9h1.5l2.2,3.6h1.4l-2.4-3.7
				c1.3-0.1,2.2-0.8,2.2-2.3c0-1.7-1-2.4-3-2.4h-3.2v8.4h1.3V197.9z M370.6,196.9v-2.6h1.8c0.9,0,1.9,0.2,1.9,1.2
				c0,1.3-1,1.4-2.1,1.4H370.6z"/>
		</g>
	</g>
</g>
</svg>
