<svg height="2500" viewBox="0 0 2048 2048" width="2500" xmlns="http://www.w3.org/2000/svg"><path d="m0 0h2048v2048h-2048z" fill="#030303"/><path d="m919 682h242l9 2 5 5 6 16 13 43 27 88 21 69 16 53 3 3 2-9 18-57 17-54 18-57 15-48 11-35 4-6 7-6 6-3h230l4 3-2 11-21 67-17 55-10 31-21 67-24 76-14 45-18 57-20 64-13 42-10 31-20 64-21 65-1 1h-243l-11-6-5-6-4-9-15-49-35-115-19-62-15-49-3-10-7 20-10 27-84 224-12 31-2 4h-244l-9-5-7-8-5-14-24-79-15-49-18-59-24-79-19-62-70-230-17-56-9-30v-5l4-3h236l10 5 6 7 5 12 17 56 18 58 19 62 20 65 11 36 2 1 1-5 33-88 23-62 15-40 16-43 23-61 3-6z" fill="#f0a504"/><path d="m833 1095 2 3 12 38 12 39 12 40-4-17-1-8 1-5 6 4 9 3 4 3 2-1 9 1v3l11 1 10-2h8l4-2-1-4 15-1 8-4h3l3 3 2 1v-2h2l1-2 5-1v2l3 1 1 9-3 17-2 8-1 10-3 10-16 43-17 45-12 31-2 4h-244l-9-5-7-8-5-14-24-79-3-11 1-5-5-23-5-29-1-10v-9l3-1 3 1v3l3 1 3 3 5 4v2l9 1 14-1 12-3h2l1-4 5-1 5 2 10-3 4-1 1-4 5-4h6l1-2 10 2 12 1 5 1 6-1 3-3 6-2 2-6 11-3 9-4 1-1 9-2 10-4 8-5 9-1 7-3 6 1 5-1h3l8 1h2v-16l-5-20zm465-3 2 3 8 25 17 56 15 50 5 16-7-24-3-12 1-11 8 8 13 4 6-2 3 6 7-2h10l6-1-1-4 3-1h9l3 2h7v2l7-4h4l1 3-2 20-4 21-1 7 1 4-10 31-13 41-11 34-1 1h-243l-11-6-5-6-4-9-15-49-14-46-8-26v-4h2l-2-11-2-19-1-6v-12l7 1 9 5 3 4h10l5 1 11-3 20-2 8-5 9-3 9-2h6l4-1 5 1h10l4-4 7-1 15-5 7-2 2-3 16-6 11-3v-2l7-3 15-2 2-2h6l8-3 6 1h4l-1-17-5-19z" fill="#fd8700"/><path d="m1259 967 2 3 8 25 18 57 11 37 3 15 3 11v17l-4 2v-2l-10 1-5 2h-5l-2 2-19 3-3 1v2l-6 3-11 3-10 4-4 4-12 3-5 2-6 2-7 1-1 3h-10l-8-2-1 2h-7l-17 5-9 5-21 2-10 3-4-1h-10l-4-5-10-5-5-1 2 18 2 19 1 4v7h-3l-17-55-14-46-15-49-8-24-7-20 1-3h3l5-5 5 2 5 3v2l7 2 5 4 5 3 9 3h6l4-3 5-1 6 1 4-1 5-2 4-1 13-1 6 1v-2l6-3 6 1h16v-2h2l1-5 4-3 6-2 1-1h5v-2l6 1 3-3 9-4 10-4 9-5 6 1h7l3 2 5 2 4 1 13-2 7 1h5l2-1 7 1 1-2v-21l-2-6zm-460 23h2l9 29 14 43 9 30 4 20 2 7v16l-2 2-5-2-7 1-1-1-6 1-5-1-6 3-9 1-9 6-11 4-7 1-2 2-10 3-9 3-2 6-8 2-1 3-7 1-16-2-10-2-9 3-3 3-1 3-9 4-7 1-3-2h-5l-1 5-8 1-6 2-19 1-4-2-5-5-6-5v-3h-5v9l2 14 2 15 6 28 1 9-2 1-6-18-13-43-18-59-2-13-3-14-5-27-4-18-3-24 1-5 6 3v3h2l10 10 7 3v2l6-1 4-1h4l2-2 3 1v-3l7-1 1-2 14-6 5-5 5-2v-2l5-2 1-3 11-2 6-1 7-3 9-3 6-4 5-2 2-3 9-1 1-2h9l1-3 6 2 8 1 1-4h2l1-2v2l4 1 11 5 3 2 13-1 2 1 10-3 5-6 8-2z" fill="#fe9a02"/><path d="m867 1185 6 4 9 3 4 3 2-1 9 1v3l11 1 10-2h8l4-2-1-4 15-1 8-4h3l3 3 2 1v-2h2l1-2 5-1v2l3 1 1 9-3 17-2 8-1 10-3 10-16 43-17 45-12 31-2 2-3-10-5-14-14-46-17-59-6-21-5-19zm469 10 8 8 13 4 6-2 3 6 7-2h10l6-1-1-4 3-1h9l3 2h7v2l7-4h4l1 3-2 20-4 21-1 7 1 4-10 31-13 41-10 31-4-4-7-22-12-41-9-30-9-32-7-26z" fill="#c77105"/><path d="m1031 1058h2l1 5h2v2h2l2 3 2 9 2 7 4 20v4h-2l-15-49z" fill="#eda104"/></svg>